<svg width="27" height="27" viewBox="0 0 27 27" fill="none" xmlns="http://www.w3.org/2000/svg">
<path d="M13.5 0.90625C11.3128 0.906084 9.16329 1.47554 7.26306 2.55857C5.36283 3.64159 3.77742 5.20082 2.66292 7.08276C1.54842 8.9647 0.943261 11.1045 0.907023 13.2913C0.870784 15.4782 1.40472 17.6369 2.45625 19.5547L1.42695 23.1875C1.33093 23.5185 1.32554 23.8693 1.41132 24.2031C1.49711 24.5369 1.67094 24.8416 1.91467 25.0853C2.15839 25.3291 2.46307 25.5029 2.7969 25.5887C3.13073 25.6745 3.48147 25.6691 3.8125 25.573L7.44531 24.5437C9.12886 25.4665 11.0011 25.9921 12.9189 26.0804C14.8367 26.1687 16.7493 25.8174 18.5105 25.0533C20.2718 24.2892 21.835 23.1326 23.0807 21.6718C24.3265 20.211 25.2218 18.4848 25.6981 16.625C26.1745 14.7652 26.2194 12.8211 25.8293 10.9413C25.4393 9.0615 24.6246 7.29576 23.4476 5.77905C22.2706 4.26233 20.7624 3.03479 19.0383 2.19025C17.3142 1.34571 15.4198 0.906516 13.5 0.90625ZM13.5 24.1562C11.5871 24.1545 9.70963 23.6402 8.06289 22.6668C7.91093 22.5821 7.74036 22.5363 7.56641 22.5336C7.47638 22.5337 7.38678 22.5459 7.3 22.5699L3.27969 23.7203L4.43008 19.7C4.46547 19.5728 4.47513 19.4398 4.45849 19.3088C4.44186 19.1778 4.39926 19.0514 4.3332 18.9371C3.1336 16.915 2.63639 14.553 2.91903 12.219C3.20167 9.88488 4.2483 7.7098 5.89587 6.03252C7.54345 4.35523 9.69948 3.26991 12.0281 2.94561C14.3568 2.62131 16.7273 3.07623 18.7705 4.23951C20.8137 5.4028 22.4148 7.20914 23.3244 9.37717C24.234 11.5452 24.4011 13.9532 23.7997 16.2261C23.1982 18.499 21.8619 20.5091 19.999 21.9435C18.1361 23.3778 15.8511 24.1558 13.5 24.1562ZM19.8574 15.3285L17.375 13.9117C17.0777 13.7406 16.7399 13.6526 16.3969 13.6569C16.0539 13.6611 15.7183 13.7575 15.4254 13.9359L13.9844 14.7957C13.2493 14.3634 12.6366 13.7507 12.2043 13.0156L13.0641 11.5746C13.2425 11.2817 13.3389 10.9461 13.3432 10.6031C13.3474 10.2601 13.2594 9.9223 13.0883 9.625L11.6715 7.14258C11.5139 6.86723 11.2866 6.63829 11.0123 6.47884C10.7381 6.31939 10.4266 6.23507 10.1094 6.23438C8.95529 6.23437 7.8483 6.692 7.03111 7.50692C6.21391 8.32185 5.75321 9.42756 5.75 10.5816C5.75 13.409 6.87232 16.1207 8.87041 18.121C10.8685 20.1214 13.5789 21.2468 16.4063 21.25H16.4184C17.5724 21.2468 18.6782 20.7861 19.4931 19.9689C20.308 19.1517 20.7656 18.0447 20.7656 16.8906C20.7649 16.5734 20.6806 16.2619 20.5212 15.9877C20.3617 15.7134 20.1328 15.4861 19.8574 15.3285ZM16.4184 19.3125C15.2714 19.3141 14.1353 19.0894 13.0753 18.6511C12.0153 18.2129 11.0522 17.5699 10.2412 16.7588C9.4301 15.9478 8.78705 14.9847 8.34885 13.9247C7.91065 12.8647 7.68591 11.7286 7.6875 10.5816C7.6873 9.95288 7.93286 9.34895 8.37177 8.89873C8.81067 8.44852 9.40816 8.18767 10.0367 8.17188L11.4051 10.5816L10.2668 12.4707C10.188 12.6054 10.1425 12.757 10.1341 12.9129C10.1257 13.0687 10.1546 13.2244 10.2184 13.3668C10.8933 14.8895 12.1105 16.1067 13.6332 16.7816C13.7757 16.8454 13.9313 16.8743 14.0871 16.8659C14.243 16.8575 14.3946 16.812 14.5293 16.7332L16.4184 15.5949L18.8281 16.9633C18.8123 17.5918 18.5515 18.1893 18.1013 18.6282C17.6511 19.0671 17.0471 19.3127 16.4184 19.3125Z" fill="#00A69D"/>
</svg>
