<svg width="25" height="25" viewBox="0 0 25 25" fill="none" xmlns="http://www.w3.org/2000/svg">
<path d="M12.4986 6.14331C10.8124 6.14331 9.1952 6.81317 8.00284 8.00553C6.81048 9.19788 6.14063 10.8151 6.14062 12.5013C6.14063 14.1876 6.81048 15.8047 8.00284 16.9971C9.1952 18.1895 10.8124 18.8593 12.4986 18.8593C14.1849 18.8593 15.8021 18.1895 16.9944 16.9971C18.1868 15.8047 18.8566 14.1876 18.8566 12.5013C18.8566 10.8151 18.1868 9.19788 16.9944 8.00553C15.8021 6.81317 14.1849 6.14331 12.4986 6.14331V6.14331ZM12.4986 16.6304C11.4031 16.6304 10.3525 16.1953 9.57792 15.4206C8.8033 14.646 8.36813 13.5954 8.36813 12.4999C8.36813 11.4045 8.8033 10.3539 9.57792 9.57923C10.3525 8.80461 11.4031 8.36944 12.4986 8.36944C13.5941 8.36944 14.6447 8.80461 15.4193 9.57923C16.1939 10.3539 16.6291 11.4045 16.6291 12.4999C16.6291 13.5954 16.1939 14.646 15.4193 15.4206C14.6447 16.1953 13.5941 16.6304 12.4986 16.6304V16.6304Z" fill="#00A69D"/>
<path d="M19.1083 7.39199C19.9269 7.39199 20.5905 6.72836 20.5905 5.90974C20.5905 5.09112 19.9269 4.42749 19.1083 4.42749C18.2896 4.42749 17.626 5.09112 17.626 5.90974C17.626 6.72836 18.2896 7.39199 19.1083 7.39199Z" fill="#00A69D"/>
<path d="M24.2329 4.40259C23.9146 3.58058 23.4281 2.8341 22.8047 2.21092C22.1813 1.58773 21.4346 1.10158 20.6125 0.783586C19.6505 0.422452 18.6341 0.22718 17.6067 0.206086C16.2826 0.148336 15.8632 0.131836 12.5055 0.131836C9.14775 0.131836 8.71737 0.131836 7.40425 0.206086C6.37766 0.226101 5.36204 0.421413 4.40125 0.783586C3.57891 1.10121 2.83205 1.58723 2.20858 2.21046C1.58511 2.83369 1.09881 3.58037 0.780871 4.40259C0.419666 5.36455 0.224842 6.38099 0.204747 7.40834C0.145622 8.73109 0.127747 9.15046 0.127747 12.5096C0.127747 15.8673 0.127747 16.295 0.204747 17.6108C0.225372 18.6393 0.419246 19.6541 0.780871 20.618C1.0997 21.4399 1.58648 22.1863 2.2101 22.8094C2.83371 23.4325 3.58046 23.9188 4.40262 24.237C5.36159 24.6126 6.37763 24.8219 7.407 24.8557C8.73112 24.9135 9.1505 24.9313 12.5082 24.9313C15.866 24.9313 16.2964 24.9313 17.6095 24.8557C18.6368 24.8348 19.6531 24.64 20.6152 24.2796C21.4372 23.9608 22.1836 23.4743 22.807 22.8509C23.4303 22.2276 23.9169 21.4811 24.2356 20.6592C24.5972 19.6967 24.7911 18.682 24.8117 17.6535C24.8709 16.3307 24.8887 15.9113 24.8887 12.5522C24.8887 9.19309 24.8887 8.76684 24.8117 7.45096C24.7957 6.40909 24.5999 5.3778 24.2329 4.40259V4.40259ZM22.5581 17.5091C22.5493 18.3015 22.4046 19.0865 22.1305 19.8301C21.924 20.3648 21.6079 20.8503 21.2025 21.2555C20.7971 21.6607 20.3113 21.9765 19.7765 22.1827C19.0412 22.4556 18.2645 22.6002 17.4802 22.6103C16.174 22.6708 15.8055 22.686 12.456 22.686C9.10375 22.686 8.76137 22.686 7.43037 22.6103C6.64652 22.6007 5.87019 22.4561 5.1355 22.1827C4.59882 21.9778 4.11112 21.6625 3.70397 21.2573C3.29682 20.852 2.97927 20.3658 2.77187 19.8301C2.50161 19.0945 2.35705 18.3187 2.34425 17.5352C2.28512 16.229 2.27137 15.8605 2.27137 12.511C2.27137 9.16009 2.27137 8.81771 2.34425 7.48534C2.35313 6.69337 2.49777 5.90879 2.77187 5.16571C3.19125 4.08084 4.05062 3.22696 5.1355 2.81171C5.87056 2.53965 6.64666 2.39504 7.43037 2.38409C8.738 2.32496 9.10512 2.30846 12.456 2.30846C15.8069 2.30846 16.1506 2.30846 17.4802 2.38409C18.2646 2.39352 19.0414 2.53818 19.7765 2.81171C20.3113 3.01834 20.7969 3.33449 21.2023 3.73988C21.6077 4.14527 21.9239 4.63093 22.1305 5.16571C22.4008 5.90127 22.5453 6.67706 22.5581 7.46059C22.6172 8.76821 22.6324 9.13534 22.6324 12.4862C22.6324 15.8357 22.6324 16.196 22.5732 17.5105H22.5581V17.5091Z" fill="#00A69D"/>
</svg>
