<svg width="25" height="25" viewBox="0 0 25 25" fill="none" xmlns="http://www.w3.org/2000/svg">
<path d="M22.6628 0.390625H2.33721C1.2625 0.390625 0.390625 1.2625 0.390625 2.33721V22.6628C0.390625 23.7375 1.2625 24.6094 2.33721 24.6094H22.6628C23.7375 24.6094 24.6094 23.7375 24.6094 22.6628V2.33721C24.6094 1.2625 23.7375 0.390625 22.6628 0.390625ZM22.6628 22.6719C9.10635 22.6688 2.32812 22.6658 2.32812 22.6628C2.33115 9.10635 2.33418 2.32812 2.33721 2.32812C15.8937 2.33115 22.6719 2.33418 22.6719 2.33721C22.6688 15.8937 22.6658 22.6719 22.6628 22.6719ZM3.98105 9.46963H7.57451V21.028H3.98105V9.46963ZM5.7793 7.88936C6.92666 7.88936 7.86211 6.95693 7.86211 5.80654C7.86211 5.53302 7.80824 5.26218 7.70357 5.00949C7.59889 4.75679 7.44548 4.52718 7.25207 4.33377C7.05866 4.14037 6.82905 3.98695 6.57635 3.88227C6.32366 3.7776 6.05282 3.72373 5.7793 3.72373C5.50578 3.72373 5.23494 3.7776 4.98224 3.88227C4.72954 3.98695 4.49993 4.14037 4.30653 4.33377C4.11312 4.52718 3.9597 4.75679 3.85503 5.00949C3.75036 5.26218 3.69648 5.53302 3.69648 5.80654C3.69346 6.95693 4.62588 7.88936 5.7793 7.88936ZM13.4173 15.3094C13.4173 13.8018 13.7049 12.3426 15.5728 12.3426C17.4134 12.3426 17.4406 14.0651 17.4406 15.4062V21.028H21.0311V14.6888C21.0311 11.5767 20.359 9.18203 16.7231 9.18203C14.9764 9.18203 13.8048 10.1417 13.3234 11.0499H13.275V9.46963H9.82686V21.028H13.4173V15.3094Z" fill="#00A69D"/>
</svg>
