<svg width="25" height="25" viewBox="0 0 25 25" fill="none" xmlns="http://www.w3.org/2000/svg">
<path d="M12.5 0.125C5.67725 0.125 0.125 5.67725 0.125 12.5C0.125 19.3228 5.67725 24.875 12.5 24.875C19.3228 24.875 24.875 19.3228 24.875 12.5C24.875 5.67725 19.3228 0.125 12.5 0.125ZM12.5 2.1875C18.208 2.1875 22.8125 6.79203 22.8125 12.5C22.815 14.9688 21.9297 17.3561 20.3183 19.2264C18.7068 21.0967 16.4765 22.3252 14.0345 22.6877V15.5071H16.9715L17.4325 12.5237H14.0345V10.8943C14.0345 9.65684 14.4418 8.5565 15.5999 8.5565H17.4613V5.95363C17.1344 5.90928 16.4425 5.81337 15.1348 5.81337C12.4041 5.81337 10.8036 7.25506 10.8036 10.5406V12.5237H7.99653V15.5071H10.8036V22.6619C8.39537 22.2656 6.20653 21.0259 4.62815 19.1643C3.04978 17.3027 2.1847 14.9406 2.1875 12.5C2.1875 6.79203 6.79203 2.1875 12.5 2.1875Z" fill="#00A69D"/>
</svg>
